<?xml version="1.0" encoding="UTF-8"?>
<svg version="1.1" viewBox="0 0 2048 1938" width="1280" height="1280" xmlns="http://www.w3.org/2000/svg">
<path transform="translate(0)" d="m0 0h2048v1938h-2048z" fill="#FDFDFD"/>
<path transform="translate(340,364)" d="m0 0h340l3 5 12 26 16 36 16 35 16 36 17 37 16 36 16 35 12 27 19 42 36 80 19 42 13 29 19 42 16 36 17 37 12 27 19 42 13 29 19 42 13 29 19 42 13 29 18 40 19 42 16 36 17 37 20 45-2 5-14 26-13 23-14 26-25 45-16 29-9 16-3-1-12-21-12-20-111-187-35-59-35-59-17-28-12-21-9-15-19-32-17-28-9-16-12-20-38-64-35-59-17-28-12-21-9-15-95-160-35-59-17-28-9-16-12-20-54-91-17-28-9-16-12-20-19-32-15-25z" fill="#221E1F"/>
<path transform="translate(1704,363)" d="m0 0 1 3-18 47-19 49-22 57-19 49-44 114-19 49-22 57-19 49-22 57-19 49-20 52-19 49-22 57-19 49-44 114-19 49-44 114-19 49-22 57-19 49-44 114-19 49-7 18-3-3-15-31-11-23-24-50-8-17 2-6 18-38 17-36 16-34 34-72 16-34 18-38 32-68 17-36 16-34 17-36 16-34 34-72 16-34 51-108 32-68 17-36 18-38 13-28 19-40 16-34 34-72 16-34 34-72 13-28 14-29 13-28 34-72 1-3-13 24-13 23-14 26-25 45-80 145-13 24-13 23-13 24-25 45-32 58-13 24-13 23-13 24-25 45-64 116-13 24-13 23-13 24-25 45-96 174-4 7-2-2-21-68-24-78-25-81 1-4 14-17 13-16 36-44 13-16 27-33 13-16 27-33 13-16 45-55 13-16 45-55 13-16 18-22 13-16 45-55 13-16 18-22 13-16 9-11 14-17 11-14 12-14 8-10 13-16 27-33 13-16 36-44 13-16 9-11 13-16 14-17 11-14 12-14z" fill="#221E1F"/>
</svg>
